<svg id="Layer_1" data-name="Layer 1" xmlns="http://www.w3.org/2000/svg" viewBox="0 0 280 280"><defs><style>.cls-1{fill:#777;}</style></defs><title>icon_rocketApp</title><path class="cls-1" d="M150,11C72.8,11,10,73.8,10,151S72.8,291,150,291s140-62.8,140-140S227.2,11,150,11Zm0,267.2A127.2,127.2,0,1,1,277.2,151,127.34,127.34,0,0,1,150,278.2Z" transform="translate(-10 -11)"/><path class="cls-1" d="M151.6,158.46,131.74,196.1l4.87-20.81-11.92-17.38-8.21,18.8-8.72-14.3L91,163.29l10.89-17.39-21.07,0L66.42,161.64,86.28,124l28.1,0,40.45-50.75-19.05,62Zm-32.19,33-13.35,17.63.37-10.69L94.65,213.07l.44-12.3L78.57,217.64l4.6-23.16-9.91,7.31,5.42-18-8.61,6.34L77.2,168.9l28-2.3Zm-9.35-2.28-8.79-14.94-17,1.21-.8,6.24,4.19-1.85L86.4,187l4.81-2.13-.3,9.38,7.57-5.54,1,5.17,5.15-5.05.84,4.5Z" transform="translate(-10 -11)"/><polygon class="cls-1" points="225.22 199.12 196.74 199.12 140.61 95.82 150 62.79 225.22 199.12"/></svg>
