<?xml version="1.0" encoding="utf-8"?>
<svg version="1.1" id="Layer_1" xmlns="http://www.w3.org/2000/svg" xmlns:xlink="http://www.w3.org/1999/xlink" x="0px" y="0px"
   viewBox="0 0 280 280" style="enable-background:new 0 0 280 280;" xml:space="preserve">
<style type="text/css">
  .st0{fill:#c2c9c9;}
</style>
<title>icon_rocketApp</title>
<path class="st0 fillable" d="M142.1,155.1l-31.5,59.7l7.7-33l-18.9-27.6l-13,29.8l-13.8-22.7l-26.6,1.4l17.3-27.6H29.7l-22.8,25l31.5-59.7
  H83l64.2-80.5L117,118.3L142.1,155.1z M91,207.5l-21.2,28l0.6-17l-18.7,23.3l0.7-19.5L26.2,249l7.3-36.7l-15.7,11.6l8.6-28.6
  l-13.7,10.1L24,171.7l44.4-3.6L91,207.5z M76.1,203.8l-13.9-23.7l-27,1.9L34,192l6.6-2.9l-2,11.4l7.6-3.4l-0.5,14.9l12-8.8l1.6,8.2
  l8.2-8l1.3,7.1L76.1,203.8z"/>
<polygon class="st0 fillable" points="274.7,237.1 229.6,237.1 140.5,73.2 155.4,20.7 "/>
</svg>
