<?xml version="1.0" encoding="UTF-8"?>
<svg width="80px" height="71px" viewBox="0 0 80 71" version="1.1" xmlns="http://www.w3.org/2000/svg" xmlns:xlink="http://www.w3.org/1999/xlink">
    <defs></defs>
    <g id="Page-1" stroke="none" stroke-width="1" fill="none" fill-rule="evenodd">
        <g id="defender-manager" class="fillable" fill-rule="nonzero">
            <path d="M30.8494533,65.5486891 C30.647603,65.6484082 30.5130362,65.6816479 30.5130362,65.6816479 L30.5130362,5.31835206 L55.1051304,17.2514045 L60.8915055,16.3206929 C60.5214466,14.7916667 59.5121951,13.4620787 58.0319596,12.7308052 L32.901598,0.531835206 C32.1614802,0.166198502 31.3540791,0 30.5130362,0 C29.705635,0 28.8982338,0.166198502 28.1244743,0.531835206 L2.9941127,12.7308052 C1.14381833,13.6282772 0,15.4897004 0,17.5173221 C0,59.0669476 27.3507149,70.2022472 28.5281749,70.6343633 C29.1673675,70.8670412 29.8402019,71 30.5130362,71 C31.1858705,71 31.8587048,70.8670412 32.4978974,70.6343633 C32.8343146,70.5014045 35.5592935,69.4044944 39.1925988,66.8117978 L30.8494533,65.5486891 Z M18.0992431,56.1418539 C11.7746005,48.928839 5.41631623,36.829588 5.41631623,17.5173221 L22.1698907,9.37359551 L11.3036165,18.2818352 C8.20857864,32.2092697 18.0656013,56.0421348 18.0992431,56.1418539 Z M53.1875526,42.1479401 L34.8864592,42.1479401 L34.8864592,24.6970974 L53.1875526,21.9382022 L53.1875526,42.1479401 Z M53.1875526,64.6512172 L34.8864592,61.8923221 L34.8864592,44.4414794 L53.1875526,44.4414794 L53.1875526,64.6512172 Z M80,42.1479401 L55.4751892,42.1479401 L55.4751892,21.4728464 L80,17.5838015 L80,42.1479401 Z M80,69.005618 L55.4751892,65.116573 L55.4751892,44.4414794 L80,44.4414794 L80,69.005618 Z" id="Shape"></path>
        </g>
    </g>
</svg>
