<svg viewBox="0 0 200 200" xmlns="http://www.w3.org/2000/svg"><g><path d="m100 7.14a92.86 92.86 0 1 0 92.86 92.86 93 93 0 0 0 -92.86-92.86zm0 177.23a84.37 84.37 0 1 1 84.37-84.37 84.47 84.47 0 0 1 -84.37 84.37z"/><path d="m92.94 141a34.73 34.73 0 0 1 -38.83-55.83 30.36 30.36 0 0 0 -2.31 11.08 7.44 7.44 0 0 0 7.2 7.15 6.78 6.78 0 0 0 6.78-6.78c0-5-2.14-4.9-2.14-11.62-.05-12.25 16.36-15.68 16.36-24.12a14.13 14.13 0 0 0 -.74-5s7.49 3.45 7.49 11.12c0 6.68-2.17 8.07-2.17 15.45a9.87 9.87 0 0 0 9.6 9.55c5.09 0 8.53-4.13 8.53-9.22 0 0 0-3.23-.17-6.47 3.18 3.26 7 11 9.29 19.17h-11.46a7.48 7.48 0 0 0 -7.48 7.52v3.19c-5.46-7.4-15.19-10.19-15.19-21.44a36 36 0 0 1 .53-3.66c-2.91 1.16-5.42 5.49-5.42 9.38 0 11.35 6.74 11.1 6.74 22.2a9.43 9.43 0 0 1 -9.75 9.33 9.78 9.78 0 0 1 -9.8-12.25 20.28 20.28 0 0 0 -1.61 7.93c0 10.88 8.53 19.7 19 19.7a18.7 18.7 0 0 0 12.61-4.81h2.93v.59 7a7.58 7.58 0 0 0 .01.84z"/><rect height="13.34" rx="3.55" width="27.75" x="97.2" y="99.83"/><rect height="27.75" rx="3.55" transform="matrix(0 -1 1 0 34.76 247.76)" width="13.34" x="134.59" y="92.62"/><rect height="27.75" rx="3.55" transform="matrix(0 -1 1 0 -25.59 247.75)" width="13.34" x="104.41" y="122.79"/><rect height="27.75" rx="3.55" transform="matrix(0 -1 1 0 4.59 277.93)" width="13.34" x="134.59" y="122.79"/><rect height="27.75" rx="3.55" transform="matrix(0 -1 1 0 -25.83 217.34)" width="13.34" x="89.09" y="107.71"/><rect height="27.75" rx="3.55" transform="matrix(0 -1 1 0 4.35 247.52)" width="13.34" x="119.27" y="107.71"/></g></svg>
