<?xml version="1.0" encoding="UTF-8"?>
<svg width="243px" height="63px" viewBox="0 0 243 63" version="1.1" xmlns="http://www.w3.org/2000/svg" xmlns:xlink="http://www.w3.org/1999/xlink">
    <title>RocketCyber</title>
    <defs></defs>
    <g id="Page-1" stroke="none" stroke-width="1" fill="none" fill-rule="evenodd">
        <g id="logo_rocket-cyber_2color_horiz-copy" transform="translate(0.000000, -1.000000)">
            <polyline id="Fill-1" fill="#84BF41" points="233.569 22.473 242.797 0.928 226.316 17.593 216.222 16.532 207.641 29.286 213.431 24.18 220.998 25.002 216.418 30.826 222.46 31.154 225.04 36.627 228.71 30.19 232.322 36.89 229.773 44.177 238.355 31.423 233.569 22.473"></polyline>
            <path d="M220.431,42.165 L220.304,40.518 L218.261,42.133 L218.116,40.237 L215.183,41.935 L215.651,38.579 L213.84,39.159 L214.567,36.658 L212.992,37.16 L213.52,34.952 L219.671,35.173 L222.251,40.875 L220.431,42.165 Z M221.39,32.563 L211.235,32.309 L207.856,39.666 L211.191,37.72 L208.554,43.969 L212.392,41.725 L209.849,49.866 L216.432,44.443 L215.8,48.844 L220.594,44.046 L220.048,47.869 L225.521,42.053 L221.39,32.563 L221.39,32.563 Z" id="Fill-2" fill="#84BF41"></path>
            <path d="M11.048,46.153 C13.597,46.153 15.058,44.794 15.058,42.789 L15.058,42.721 C15.058,40.478 13.495,39.323 10.946,39.323 L5.747,39.323 L5.747,46.153 L11.048,46.153 Z M0.514,34.599 L11.388,34.599 C14.412,34.599 16.757,35.449 18.32,37.012 C19.646,38.337 20.359,40.207 20.359,42.449 L20.359,42.517 C20.359,46.357 18.286,48.769 15.262,49.891 L21.072,58.386 L14.956,58.386 L9.858,50.775 L5.747,50.775 L5.747,58.386 L0.514,58.386 L0.514,34.599 L0.514,34.599 Z" id="Fill-3" fill="#84BF41"></path>
            <path d="M34.838,49.381 L34.838,49.313 C34.838,46.628 32.9,44.284 30.047,44.284 C27.09,44.284 25.323,46.561 25.323,49.246 L25.323,49.313 C25.323,51.998 27.26,54.342 30.114,54.342 C33.07,54.342 34.838,52.066 34.838,49.381 Z M20.226,49.381 L20.226,49.313 C20.226,44.081 24.439,39.833 30.114,39.833 C35.755,39.833 39.935,44.012 39.935,49.246 L39.935,49.313 C39.935,54.546 35.722,58.794 30.047,58.794 C24.405,58.794 20.226,54.615 20.226,49.381 L20.226,49.381 Z" id="Fill-4" fill="#84BF41"></path>
            <path d="M41.194,49.381 L41.194,49.313 C41.194,44.114 45.17,39.833 50.743,39.833 C54.176,39.833 56.316,40.988 58.016,42.891 L54.855,46.289 C53.699,45.066 52.544,44.284 50.709,44.284 C48.127,44.284 46.292,46.561 46.292,49.246 L46.292,49.313 C46.292,52.1 48.093,54.342 50.913,54.342 C52.646,54.342 53.836,53.595 55.093,52.406 L58.117,55.463 C56.351,57.401 54.311,58.794 50.676,58.794 C45.204,58.794 41.194,54.581 41.194,49.381" id="Fill-5" fill="#84BF41"></path>
            <polyline id="Fill-6" fill="#84BF41" points="59.887 33.58 65.052 33.58 65.052 46.798 71.101 40.172 77.285 40.172 70.353 47.342 77.523 58.386 71.542 58.386 66.887 50.911 65.052 52.847 65.052 58.386 59.887 58.386 59.887 33.58"></polyline>
            <path d="M89.385,47.852 C89.079,45.542 87.72,43.978 85.545,43.978 C83.404,43.978 82.011,45.507 81.603,47.852 L89.385,47.852 Z M76.54,49.381 L76.54,49.313 C76.54,44.114 80.244,39.833 85.545,39.833 C91.628,39.833 94.414,44.556 94.414,49.721 C94.414,50.128 94.38,50.605 94.346,51.081 L81.671,51.081 C82.181,53.425 83.812,54.648 86.122,54.648 C87.855,54.648 89.113,54.105 90.54,52.78 L93.496,55.396 C91.798,57.502 89.351,58.794 86.055,58.794 C80.584,58.794 76.54,54.955 76.54,49.381 L76.54,49.381 Z" id="Fill-7" fill="#84BF41"></path>
            <path d="M97.577,53.221 L97.577,44.589 L95.402,44.589 L95.402,40.172 L97.577,40.172 L97.577,35.517 L102.742,35.517 L102.742,40.172 L107.024,40.172 L107.024,44.589 L102.742,44.589 L102.742,52.372 C102.742,53.561 103.252,54.138 104.407,54.138 C105.359,54.138 106.209,53.901 106.956,53.493 L106.956,57.638 C105.869,58.285 104.611,58.692 102.878,58.692 C99.718,58.692 97.577,57.435 97.577,53.221" id="Fill-8" fill="#84BF41"></path>
            <path d="M109.234,46.561 L109.234,46.493 C109.234,39.731 114.332,34.192 121.638,34.192 C126.123,34.192 128.808,35.687 131.017,37.862 L127.687,41.702 C125.852,40.037 123.982,39.017 121.604,39.017 C117.594,39.017 114.706,42.347 114.706,46.425 L114.706,46.493 C114.706,50.571 117.526,53.968 121.604,53.968 C124.322,53.968 125.987,52.881 127.856,51.182 L131.187,54.546 C128.74,57.163 126.021,58.794 121.434,58.794 C114.434,58.794 109.234,53.391 109.234,46.561" id="Fill-9" fill="#1A1918"></path>
            <path d="M145.359,40.172 L150.729,40.172 L143.728,58.828 C142.335,62.532 140.84,63.925 137.747,63.925 C135.878,63.925 134.485,63.45 133.16,62.668 L134.893,58.93 C135.572,59.337 136.422,59.643 137.102,59.643 C137.985,59.643 138.461,59.372 138.902,58.455 L131.767,40.172 L137.237,40.172 L141.383,52.576 L145.359,40.172" id="Fill-10" fill="#1A1918"></path>
            <path d="M165.785,49.313 L165.785,49.246 C165.785,46.221 163.746,44.216 161.333,44.216 C158.921,44.216 156.916,46.221 156.916,49.246 L156.916,49.313 C156.916,52.337 158.921,54.342 161.333,54.342 C163.746,54.342 165.785,52.372 165.785,49.313 Z M156.983,56.007 L156.983,58.386 L151.818,58.386 L151.818,33.58 L156.983,33.58 L156.983,42.789 C158.241,41.089 159.974,39.833 162.658,39.833 C166.906,39.833 170.95,43.163 170.95,49.246 L170.95,49.313 C170.95,55.396 166.975,58.726 162.658,58.726 C159.906,58.726 158.207,57.468 156.983,56.007 L156.983,56.007 Z" id="Fill-11" fill="#1A1918"></path>
            <path d="M185.156,47.852 C184.851,45.542 183.491,43.978 181.316,43.978 C179.175,43.978 177.782,45.507 177.374,47.852 L185.156,47.852 Z M172.311,49.381 L172.311,49.313 C172.311,44.114 176.015,39.833 181.316,39.833 C187.398,39.833 190.186,44.556 190.186,49.721 C190.186,50.128 190.151,50.605 190.117,51.081 L177.442,51.081 C177.952,53.425 179.583,54.648 181.894,54.648 C183.627,54.648 184.884,54.105 186.312,52.78 L189.268,55.396 C187.568,57.502 185.122,58.794 181.826,58.794 C176.354,58.794 172.311,54.955 172.311,49.381 L172.311,49.381 Z" id="Fill-12" fill="#1A1918"></path>
            <path d="M191.853,40.172 L197.018,40.172 L197.018,43.842 C198.071,41.328 199.771,39.697 202.829,39.833 L202.829,45.236 L202.557,45.236 C199.125,45.236 197.018,47.308 197.018,51.658 L197.018,58.386 L191.853,58.386 L191.853,40.172" id="Fill-13" fill="#1A1918"></path>
        </g>
    </g>
</svg>
