<svg id="Layer_1" data-name="Layer 1" xmlns="http://www.w3.org/2000/svg" xmlns:xlink="http://www.w3.org/1999/xlink" viewBox="0 0 130.64 175.59"><defs><style>.cls-1{fill:url(#linear-gradient);}</style><linearGradient id="linear-gradient" x1="131.27" y1="150.97" x2="11.44" y2="31.14" gradientUnits="userSpaceOnUse"><stop offset="0" stop-color="#fd0"/><stop offset="1" stop-color="#d02149"/></linearGradient></defs><title>icons_attack map_bomb</title><path class="cls-1" d="M2.57,36.52c-1-1.24-.75-2.7,1-4.1,3-2.39,6.11-4.63,9.19-6.92.64-.48,1.36-.85,2-1.38a9.27,9.27,0,0,0,1.12-1.49c-.58-.2-1.14-.41-1.73-.58-3.2-1-6.41-1.88-9.61-2.84a15.76,15.76,0,0,1-2.7-.95C.16,17.42-.43,16.06.33,14.72s1.72-2.18,3.5-1.63c4,1.22,7.95,2.3,11.93,3.4a5.38,5.38,0,0,0,1.28,0A4.12,4.12,0,0,0,17,15.23c-1.54-3.67-3.18-7.3-4.67-11C11.39,2,12.44.17,14.47.06a2.82,2.82,0,0,1,2.93,2q2,4.6,4.06,9.18c.31.69.73,1.34,1.3,2.4,1.2-3.16,2.27-6,3.35-8.78.4-1,.82-2.08,1.29-3.09A2.67,2.67,0,0,1,31,.2c1.66.57,2,2,1.59,3.56s-1,2.7-1.44,4l-2.87,8c2.81-.85,5.63-1.65,8.42-2.56,1.51-.49,2.94-1.24,4.45-1.73,2.34-.76,3.62-.28,4.33,1.45.63,1.54-.16,2.89-2.48,3.89-2,.88-4.17,1.56-6.24,2.39-1.61.64-3.17,1.38-4.94,2.16,8.66,6.56,18,7.85,27.9,5,6.26-1.82,12.41-4,18.57-6.15a88.61,88.61,0,0,1,18-4.5C109.24,14.12,126.81,23,130,36.91a25.58,25.58,0,0,1-2,17.21A79.08,79.08,0,0,1,123,62.28a2.19,2.19,0,0,0,0,2.9c1.81,2.61,3.32,5.41,4.95,8.14,1.16,2,.7,3.68-.81,5.21-2,2.05-4.07,4.07-6.1,6.12a3.93,3.93,0,0,1-4.8.81,36.69,36.69,0,0,1-5.1-2.59A56,56,0,0,1,93.47,64.3c-.55-1-.83-2.06-1.35-3a3.48,3.48,0,0,1,.68-4.38c2.21-2.31,4.51-4.54,6.77-6.81a3.49,3.49,0,0,1,4.41-.55q3.79,2,7.44,4.28c2.51,1.57,2.53,1.68,4.22-.92s3.3-5.45,3.52-8.77c.38-5.53-2.62-9.07-7-11.56A28,28,0,0,0,92.7,29.27,70.1,70.1,0,0,0,80.41,33a105.35,105.35,0,0,1-25.25,7c-8.66,1.11-16.77-1.07-24.4-5.16-1.4-.75-2.71-1.69-4-2.56-2.57-1.66-2.82-1.58-3.47,1.53-.49,2.34-.75,4.72-1.29,7a5,5,0,0,1-1.45,2.88,3.75,3.75,0,0,1-3.08.21,2.76,2.76,0,0,1-1.17-2.32c.36-3.16,1-6.29,1.52-9.42.11-.62.38-1.22.49-1.85.05-.29,0-.84-.16-.87a1.54,1.54,0,0,0-1.11.11c-2.22,1.56-4.41,3.16-6.61,4.76-1.16.84-2.28,1.77-3.5,2.51C5.13,37.91,3.52,37.73,2.57,36.52ZM127,113.17c0,.09,0,.18,0,.27,0,.85,0,1.7-.06,2.55,0,.46-.05.93-.09,1.39,0,.24,0,.47-.05.71a62,62,0,0,1-3,14.89l-.1.29c-.2.59-.4,1.17-.62,1.75-.29.78-.6,1.55-.92,2.31l-.11.26a58.52,58.52,0,0,1-2.57,5.31l0,.05c-.44.8-.89,1.59-1.36,2.36-.3.5-.62,1-.93,1.47l-.1.15a62.82,62.82,0,0,1-14.45,15.68l-.7.55-.24.17a59,59,0,0,1-10,6A62.47,62.47,0,1,1,40.86,55.3l1-.39,1.33-.5c.78-.28,1.57-.55,2.37-.8l.22-.07a59,59,0,0,1,7.84-1.86q1.37-.24,2.76-.41l.21,0q2.68-.33,5.42-.44,1,0,2.08-.05h.26a62.39,62.39,0,0,1,21.25,3.61c1.27.45,2.23.8.78,2-3.62,3-2.61,6.49-1.07,10,3,6.86,7.73,12.48,13.23,17.43a46.5,46.5,0,0,0,12.22,8.34c3.85,1.7,7.54,2.83,10.82-1.09.56-.67,1.19-.74,1.6.47a65.53,65.53,0,0,1,3.8,21.65ZM64.43,66c0-.43-1.14-1.12-1.71-1.08a61.36,61.36,0,0,0-9.94,1.14c-21.22,5.25-35.39,23.84-36.44,43,0,1.54-.59,4,.13,4.44,1.25.84,3.3.5,5,.65.16,0,.32,0,.48,0,2,.26,2.38-.81,2.44-2.54a52.42,52.42,0,0,1,.76-5.66C27.55,89.79,41.58,75.91,58,73.65c1.73-.24,3.47-.47,5.18-.84.51-.11,1.28-.65,1.31-1A33.69,33.69,0,0,0,64.43,66Z"/></svg>